<svg xmlns="http://www.w3.org/2000/svg" width="354.95" height="354.95" viewBox="0 0 354.95 354.95">
  <defs>
    <linearGradient id="grad1" x1="177.48" y1="0" x2="177.48" y2="354.95" gradientUnits="userSpaceOnUse">
      <stop offset="0" stop-color="#8A499C"/>
      <stop offset="1" stop-color="#366BB4"/>
    </linearGradient>
    <linearGradient id="grad2" x1="177.28" y1="281.84" x2="177.28" y2="95.58" gradientUnits="userSpaceOnUse">
      <stop offset="0" stop-color="#DC5761"/>
      <stop offset="1" stop-color="#F68D51"/>
    </linearGradient>
    <linearGradient id="grad3" x1="76.89" y1="190.28" x2="127.2" y2="190.28" gradientUnits="userSpaceOnUse">
      <stop offset="0.08" stop-color="#DC5761"/>
      <stop offset="0.25" stop-color="#DF5D5E"/>
      <stop offset="0.5" stop-color="#E87159"/>
      <stop offset="0.76" stop-color="#F68D51"/>
    </linearGradient>
    <linearGradient id="grad4" x1="177.82" y1="140.03" x2="177.82" y2="93.92" gradientUnits="userSpaceOnUse">
      <stop offset="0.08" stop-color="#DC5761"/>
      <stop offset="0.25" stop-color="#DF5D5E"/>
      <stop offset="0.5" stop-color="#E87159"/>
      <stop offset="0.76" stop-color="#F68D51"/>
    </linearGradient>
    <linearGradient id="grad5" x1="276.97" y1="190.28" x2="226.66" y2="190.28" gradientUnits="userSpaceOnUse">
      <stop offset="0.08" stop-color="#DC5761"/>
      <stop offset="0.25" stop-color="#DF5D5E"/>
      <stop offset="0.5" stop-color="#E87159"/>
      <stop offset="0.76" stop-color="#F68D51"/>
    </linearGradient>
    <linearGradient id="grad6" x1="177.82" y1="239.9" x2="177.82" y2="290.22" gradientUnits="userSpaceOnUse">
      <stop offset="0.08" stop-color="#DC5761"/>
      <stop offset="0.25" stop-color="#DF5D5E"/>
      <stop offset="0.5" stop-color="#E87159"/>
      <stop offset="0.76" stop-color="#F68D51"/>
    </linearGradient>
  </defs>
  <!-- Background circle with gradient -->
  <circle cx="177.48" cy="177.48" r="177.48" fill="url(#grad1)"/>
  <!-- Outer rings -->
  <ellipse cx="177.44" cy="178.44" rx="152.15" ry="150.04" fill="#c4d2db"/>
  <ellipse cx="177.52" cy="186.93" rx="143.64" ry="139.86" fill="#45bfb4"/>
  <ellipse cx="177.29" cy="186.95" rx="115.95" ry="111.68" fill="#c7d3da"/>
  <ellipse cx="176.84" cy="189.1" rx="107.5" ry="106.77" fill="#446db4"/>
  <!-- Small dots -->
  <ellipse cx="57.88" cy="95.58" rx="9.5" ry="10.06" fill="#1ea4b8"/>
  <ellipse cx="179" cy="32.86" rx="9.5" ry="10.06" fill="#1ea4b8"/>
  <ellipse cx="298.59" cy="95.58" rx="9.5" ry="10.06" fill="#1ea4b8"/>
  <ellipse cx="282.97" cy="303.63" rx="10.06" ry="9.5" fill="#c9cedd"/>
  <ellipse cx="70.35" cy="303.61" rx="9.5" ry="10.06" fill="#c9cedd"/>
  <!-- Top mountain/arrow paths -->
  <path d="m181.04,46.98s-3.79,0.07 -4.17,-0.01c-0.92,-0.2 -4.97,-0.91 -4.97,-0.91l-4.81,-1.51s-4.27,-2 -4.39,-2.09 -3.07,-2.38 -3.07,-2.38l-3.12,-0.03 -1.1,1.15 -0.43,1.98 -0.34,2.41 -0.57,4.88 -0.59,5.57 -0.66,4.91 -0.53,3.38 -0.84,4.4 -0.54,2.38 -0.16,1.85s0.61,0.92 0.7,0.99 1.59,-0.63 1.59,-0.63l1.15,-0.64 0.88,-2.41 0.71,-2.02 0.87,-3.21 1.14,-3.25 1.05,-3.26 0.81,-3.63 0.33,-2.18 0.15,-3.43 7.93,5.77 1.02,1.07s0.2,0.97 0.3,1.09 0.23,1.88 0.17,2.77 0.04,3.68 0.04,3.68l-0.9,4.36 -1.74,6.06 -2.43,6.71 -1.72,6.04 -1.59,7.04 -0.62,2.83 -1.57,6.74 6.03,-0.83 2.07,-6.29 2.7,-7.17 2.87,-7.08 2.09,-5.89 2.61,-7.08 1.39,-2.41 0.99,0.1 1.5,3.83 3.09,9.3 1.81,4.85 1.87,7.69 2.15,9.44 6.07,-0.7 -0.06,-2.52c0.03,-0.18 -0.45,-2.48 -0.48,-2.66l-1.42,-7.58 -2.29,-13.44 -1.54,-8.9 -0.23,-6.72 0.89,-3.14 2.47,-2.29 2.98,-2.42 2.23,-1.36 1.55,6.62 2.74,10.07 2.17,6.48 1.21,3.05 1.77,0.31 0.98,-0.99 -1.12,-7.32 -2.12,-13.99 -0.6,-9.32 -0.97,-2.86c-0.92,-1.09 -3.14,-2.03 -3.95,-1.98 -0.2,0.01 -3.41,1.43 -3.41,1.43l-7.41,3.05 -8.63,2.25Z" fill="#1ea4b8"/>
  <path d="m288.95,105.33s-2.33,-2.99 -2.49,-3.34c-0.4,-0.86 -2.25,-4.52 -2.25,-4.52l-1.68,-4.75s-0.96,-4.62 -0.96,-4.76 0.05,-3.89 0.05,-3.89l-1.85,-2.51 -1.58,-0.19 -1.84,0.85 -2.13,1.17 -4.24,2.48 -4.81,2.87 -4.32,2.42 -3.02,1.6 -4.02,1.98 -2.23,0.99 -1.57,0.98s-0.37,1.04 -0.37,1.16 1.45,0.89 1.45,0.89l1.2,0.54 2.46,-0.75 2.04,-0.65 3.09,-1.23 3.28,-1.04 3.24,-1.12 3.39,-1.53 1.94,-1.04 2.83,-1.94 0.15,9.8 -0.24,1.46s-0.65,0.74 -0.69,0.89 -1.37,1.32 -2.11,1.8 -2.92,2.24 -2.92,2.24l-4.02,1.9 -5.89,2.25 -6.82,2.09 -5.87,2.25 -6.59,2.96 -2.64,1.2 -6.34,2.8 4.29,4.32 6.28,-2.12 7.35,-2.14 7.38,-1.96 5.96,-1.87 7.23,-2.16 2.76,-0.34 0.51,0.85 -2.16,3.5 -5.58,8.05 -2.8,4.36 -5.03,6.11 -6.26,7.39 4.2,4.43 1.98,-1.56c0.16,-0.08 1.71,-1.85 1.84,-1.97l5.21,-5.68 9.37,-9.9 6.19,-6.58 5.24,-4.22 3.05,-1.17 3.32,0.6 3.73,0.93 2.42,0.97 -4.36,5.22 -6.41,8.24 -3.88,5.63 -1.71,2.8 0.82,1.6 1.38,0.19 5.18,-5.29 9.91,-10.1 7.09,-6.08 1.7,-2.49c0.32,-1.39 -0.26,-3.73 -0.79,-4.34 -0.13,-0.15 -3.19,-1.87 -3.19,-1.87l-6.88,-4.09 -6.98,-5.55Z" fill="#1ea4b8"/>
  <path d="m69.22,103.82s-2.03,3.21 -2.3,3.48c-0.67,0.66 -3.49,3.65 -3.49,3.65l-3.91,3.19s-4.02,2.47 -4.16,2.52 -3.67,1.26 -3.67,1.26l-1.74,2.59 0.35,1.55 1.42,1.45 1.83,1.61 3.77,3.15 4.33,3.55 3.74,3.25 2.53,2.3 3.22,3.12 1.69,1.76 1.46,1.15s1.11,0 1.21,-0.04 0.35,-1.67 0.35,-1.67l0.1,-1.32 -1.53,-2.06 -1.3,-1.7 -2.2,-2.49 -2.09,-2.73 -2.15,-2.67 -2.59,-2.67 -1.64,-1.47 -2.78,-2.01 9.17,-3.46 1.45,-0.26s0.92,0.36 1.07,0.35 1.7,0.84 2.41,1.38 3.1,1.99 3.1,1.99l3.15,3.14 4.11,4.78 4.27,5.71 4.1,4.76 5.01,5.2 2.02,2.08 4.77,5.02 2.62,-5.5 -4.12,-5.19 -4.5,-6.2 -4.34,-6.29 -3.78,-4.98 -4.48,-6.07 -1.25,-2.48 0.63,-0.77 4.03,0.85 9.47,2.53 5.05,1.15 7.45,2.67 9.07,3.39 2.75,-5.45 -2.13,-1.33c-0.13,-0.12 -2.32,-0.98 -2.48,-1.06l-7.11,-2.98 -12.49,-5.47 -8.29,-3.6 -5.74,-3.5 -2.14,-2.47 -0.56,-3.32 -0.38,-3.82 0.09,-2.61 6.38,2.34 9.92,3.25 6.61,1.74 3.21,0.67 1.23,-1.31 -0.29,-1.36 -6.73,-3.08 -12.86,-5.91 -8.12,-4.62 -2.92,-0.76c-1.41,0.17 -3.42,1.5 -3.82,2.21 -0.1,0.17 -0.68,3.63 -0.68,3.63l-1.52,7.86 -2.86,8.45Z" fill="#1ea4b8"/>
  <path d="m79.51,293.25s2.66,2.7 2.87,3.03c0.49,0.81 2.76,4.23 2.76,4.23l2.22,4.53s1.49,4.47 1.51,4.62 0.4,3.86 0.4,3.86l2.13,2.28h1.59s1.73,-1.05 1.73,-1.05l1.98,-1.41 3.93,-2.95 4.44,-3.41 4.01,-2.91 2.81,-1.94 3.77,-2.43 2.1,-1.25 1.45,-1.16s0.25,-1.08 0.24,-1.19 -1.55,-0.72 -1.55,-0.72l-1.26,-0.39 -2.36,1.03 -1.95,0.88 -2.93,1.58 -3.14,1.42 -3.09,1.49 -3.19,1.91 -1.8,1.26 -2.59,2.25 -1.29,-9.72 0.07,-1.47s0.56,-0.81 0.58,-0.97 1.2,-1.47 1.89,-2.04 2.64,-2.57 2.64,-2.57l3.78,-2.36 5.59,-2.92 6.53,-2.87 5.56,-2.92 6.2,-3.7 2.48,-1.5 5.97,-3.51 -4.76,-3.8 -5.99,2.84 -7.06,2.98 -7.11,2.8 -5.71,2.55 -6.93,2.99 -2.7,0.65 -0.61,-0.79 1.74,-3.73 4.61,-8.65 2.27,-4.66 4.29,-6.66 5.35,-8.07 -4.69,-3.91 -1.78,1.77c-0.15,0.1 -1.48,2.04 -1.6,2.17l-4.51,6.25 -8.16,10.93 -5.38,7.25 -4.71,4.8 -2.89,1.52 -3.36,-0.21 -3.81,-0.49 -2.52,-0.68 3.72,-5.69 5.41,-8.93 3.19,-6.04 1.38,-2.98 -1,-1.5 -1.39,-0.02 -4.53,5.86 -8.67,11.18 -6.34,6.86 -1.4,2.67c-0.16,1.41 0.69,3.67 1.29,4.22 0.15,0.14 3.38,1.49 3.38,1.49l7.31,3.26 7.58,4.7Z" fill="#c9cedd"/>
  <path d="m271.4,295.75s2.6,-2.76 2.92,-2.97c0.79,-0.52 4.13,-2.92 4.13,-2.92l4.44,-2.38s4.42,-1.65 4.56,-1.68 3.85,-0.54 3.85,-0.54l2.2,-2.21 -0.05,-1.59 -1.12,-1.69 -1.49,-1.93 -3.1,-3.82 -3.57,-4.32 -3.05,-3.9 -2.04,-2.74 -2.57,-3.68 -1.32,-2.05 -1.21,-1.41s-1.09,-0.21 -1.2,-0.19 -0.66,1.57 -0.66,1.57l-0.35,1.27 1.11,2.32 0.95,1.91 1.69,2.87 1.53,3.08 1.6,3.03 2.03,3.12 1.33,1.76 2.35,2.5 -9.66,1.64 -1.48,-0.02s-0.83,-0.53 -0.99,-0.54 -1.51,-1.15 -2.1,-1.81 -2.66,-2.54 -2.66,-2.54l-2.49,-3.69 -3.12,-5.48 -3.1,-6.42 -3.12,-5.45 -3.93,-6.06 -1.59,-2.42 -3.73,-5.84 -3.62,4.89 3.05,5.88 3.24,6.94 3.06,7 2.76,5.61 3.24,6.82 0.75,2.67 -0.77,0.64 -3.79,-1.6 -8.81,-4.29 -4.74,-2.1 -6.81,-4.04 -8.26,-5.06 -3.74,4.83 1.84,1.72c0.11,0.14 2.09,1.41 2.23,1.52l6.41,4.28 11.21,7.75 7.45,5.12 4.97,4.53 1.62,2.84 -0.08,3.37 -0.35,3.83 -0.59,2.54 -5.82,-3.51 -9.12,-5.08 -6.15,-2.97 -3.02,-1.27 -1.46,1.05 0.03,1.39 6.02,4.31 11.49,8.26 7.09,6.08 2.72,1.3c1.42,0.11 3.65,-0.82 4.17,-1.44 0.13,-0.15 1.36,-3.44 1.36,-3.44l3,-7.43 4.42,-7.75Z" fill="#c9cedd"/>
  <!-- Center orange circle -->
  <ellipse cx="177.28" cy="188.71" rx="91.57" ry="93.13" fill="url(#grad2)"/>
  <!-- Inner white circle -->
  <ellipse cx="176.95" cy="189.27" rx="50.09" ry="50.53" fill="#c2cdd8"/>
  <!-- Four orange circles around center -->
  <circle cx="102.05" cy="190.28" r="25.16" fill="url(#grad3)"/>
  <circle cx="177.82" cy="113.54" r="25.16" fill="url(#grad4)"/>
  <circle cx="251.82" cy="190.28" r="25.16" fill="url(#grad5)"/>
  <circle cx="177.82" cy="265.06" r="25.16" fill="url(#grad6)"/>
  <!-- Center compass/star design -->
  <path d="M177.74,164.75l-3.28,15.58l-1.83,3.31l-3.54,1.83l-15.8,3.24l16.25,4.21l2.79,1.79l2.02,3.54l3.39,15.06l3.39,-15.32l2.09,-3.62l3.13,-1.86l16.58,-3.02l-16.47,-4.06l-3.17,-2.05l-2.09,-3.54l-3.46,-15.09z" fill="#e7695e"/>
  <path d="M177.63,179.77l1.19,4.54l3.05,2.87l3.92,1.53l-3.92,2.16l-2.61,2.35l-1.15,4.92l-2.12,-5.07l-2.24,-2.79l-4.66,-1.33l4.85,-1.73l2.12,-2.65l1.38,-5.81l0.19,1.01z" fill="#b7c7d8"/>
  <!-- Corner decorations -->
  <path d="M165.66,176.67l0.23,-3.28l-7.31,-3.87l3.65,7.15l3.43,0z" fill="#e7695e"/>
  <path d="M189.97,176.64l3.28,0.21l3.83,-7.33l-7.13,3.7l0.02,3.42z" fill="#e7695e"/>
  <path d="M189.95,200.85l-0.2,3.28l7.33,3.83l-3.7,-7.13l-3.43,0.02z" fill="#e7695e"/>
  <path d="M165.69,200.83l-3.28,-0.2l-3.83,7.33l7.13,-3.7l-0.02,-3.43z" fill="#e7695e"/>
</svg>
